<?xml version="1.0" encoding="utf-8"?>
<!-- Generator: Adobe Illustrator 25.2.3, SVG Export Plug-In . SVG Version: 6.00 Build 0)  -->
<svg version="1.1" id="Layer_1" xmlns="http://www.w3.org/2000/svg" xmlns:xlink="http://www.w3.org/1999/xlink" x="0px" y="0px"
	 viewBox="0 0 1038 193" style="enable-background:new 0 0 1038 193;" xml:space="preserve">
<style type="text/css">
	.st0{font-family:'BaskOldFace';}
	.st1{font-size:144.5786px;}
	.st2{fill:url(#SVGID_1_);}
</style>
<text transform="matrix(1 0 0 1 210.603 145.4658)" class="st0 st1">MyMathNotes</text>
<linearGradient id="SVGID_1_" gradientUnits="userSpaceOnUse" x1="99.3747" y1="195.2648" x2="99.3747" y2="-68.6769">
	<stop  offset="0" style="stop-color:#614CD4"/>
	<stop  offset="1" style="stop-color:#FF6E66"/>
</linearGradient>
<path class="st2" d="M57.8,35c0,0-10.2,84-11.7,91.3c-3.1,14.6-24.8,31.5-26.2,39.1c-1.4,7.5,0,27.1,21.5,25.7
	c21.5-1.4,23.4-28.5,25.1-37.4C68.2,144.7,81.6,35,81.6,35h41.9c0,0-10.3,74.2-7,106.6c3.3,32.4,16.7,45.2,32.9,48
	s36-10.3,42.4-32.7c6.4-22.3,4.7-29.6,4.7-29.6h-7.8c0,0,0,26.5-23.4,27.6c-23.4,1.1-23.4-30.1-23.4-47.4c0-17.3,4.2-72.6,4.2-72.6
	h47.7V1.8H50.6c0,0-26,0.8-41.6,37.7L2,57.9h6.7c0,0,11.2-21.2,25.1-22.3L57.8,35z"/>
</svg>
